<?xml version="1.0" encoding="UTF-8"?>
<svg xmlns="http://www.w3.org/2000/svg" width="1200" height="1200" viewBox="0 0 1200 1200">
  
    <defs>
      <pattern id="dots" width="28" height="28" patternUnits="userSpaceOnUse">
        <circle cx="2" cy="2" r="1.1" fill="#d8ccbb" opacity="0.58"/>
      </pattern>
    </defs>
    <rect width="1200" height="1200" fill="#f4efe6"/>
    <rect width="1200" height="1200" fill="url(#dots)" opacity="0.68"/>
    <path d="M 0 983.9999999999999 C 336.00000000000006 888, 696 1104, 1200 936 L 1200 1200 L 0 1200 Z" fill="#efe7da" opacity="0.72"/>
  
  <rect x="58" y="54" width="1084" height="1092" rx="14" fill="none" stroke="#d9cec0" stroke-width="2"/>
  <text x="82" y="112" font-family="SFMono-Regular, Menlo, Consolas, Liberation Mono, monospace" font-size="23" font-weight="850" fill="#1d4ed8">FIELD NOTE 14 / RESILIENCE</text>
  <text x="82" y="210" font-family="Inter, ui-sans-serif, system-ui, -apple-system, BlinkMacSystemFont, Segoe UI, sans-serif" font-size="62" font-weight="900" fill="#171717">Offline auth should</text>
<text x="82" y="273.24" font-family="Inter, ui-sans-serif, system-ui, -apple-system, BlinkMacSystemFont, Segoe UI, sans-serif" font-size="62" font-weight="900" fill="#171717">degrade, not logout</text>
  <text x="84" y="365" font-family="Inter, ui-sans-serif, system-ui, -apple-system, BlinkMacSystemFont, Segoe UI, sans-serif" font-size="29" font-weight="650" fill="#69635d">The cashier workflow survived a network blink.</text>
  
    <rect x="82" y="474" width="1036" height="590" rx="10" fill="#fffaf1" stroke="#d9cec0" stroke-width="2"/>
    <rect x="82" y="474" width="1036" height="54" rx="10" fill="#fbf3e6" stroke="#d9cec0" stroke-width="2"/>
       <text x="106" y="509" font-family="SFMono-Regular, Menlo, Consolas, Liberation Mono, monospace" font-size="20" font-weight="700" fill="#69635d">session.machine</text>
  <rect x="120" y="594" width="208.5" height="116" rx="12" fill="#fbf3e6" stroke="#1d4ed8" stroke-width="3"/><text x="140" y="642" font-family="SFMono-Regular, Menlo, Consolas, Liberation Mono, monospace" font-size="22" font-weight="850" fill="#171717">fresh</text><text x="140" y="676" font-family="SFMono-Regular, Menlo, Consolas, Liberation Mono, monospace" font-size="17" font-weight="650" fill="#69635d">online</text><line x1="334.5" y1="652" x2="360.5" y2="652" stroke="#69635d" stroke-width="3"/><path d="M 351.5 642 L 364.5 652 L 351.5 662" fill="none" stroke="#69635d" stroke-width="3"/><rect x="356.5" y="594" width="208.5" height="116" rx="12" fill="#fbf3e6" stroke="#d9cec0" stroke-width="3"/><text x="376.5" y="642" font-family="SFMono-Regular, Menlo, Consolas, Liberation Mono, monospace" font-size="22" font-weight="850" fill="#171717">stale</text><text x="376.5" y="676" font-family="SFMono-Regular, Menlo, Consolas, Liberation Mono, monospace" font-size="17" font-weight="650" fill="#69635d">cached claims</text><line x1="571" y1="652" x2="597" y2="652" stroke="#69635d" stroke-width="3"/><path d="M 588 642 L 601 652 L 588 662" fill="none" stroke="#69635d" stroke-width="3"/><rect x="593" y="594" width="208.5" height="116" rx="12" fill="#fbf3e6" stroke="#d9cec0" stroke-width="3"/><text x="613" y="642" font-family="SFMono-Regular, Menlo, Consolas, Liberation Mono, monospace" font-size="22" font-weight="850" fill="#171717">limited</text><text x="613" y="676" font-family="SFMono-Regular, Menlo, Consolas, Liberation Mono, monospace" font-size="17" font-weight="650" fill="#69635d">safe actions</text><line x1="807.5" y1="652" x2="833.5" y2="652" stroke="#69635d" stroke-width="3"/><path d="M 824.5 642 L 837.5 652 L 824.5 662" fill="none" stroke="#69635d" stroke-width="3"/><rect x="829.5" y="594" width="208.5" height="116" rx="12" fill="#fbf3e6" stroke="#d9cec0" stroke-width="3"/><text x="849.5" y="642" font-family="SFMono-Regular, Menlo, Consolas, Liberation Mono, monospace" font-size="22" font-weight="850" fill="#171717">reauth</text><text x="849.5" y="676" font-family="SFMono-Regular, Menlo, Consolas, Liberation Mono, monospace" font-size="17" font-weight="650" fill="#69635d">only when</text>
<text x="849.5" y="694.36" font-family="SFMono-Regular, Menlo, Consolas, Liberation Mono, monospace" font-size="17" font-weight="650" fill="#69635d">needed</text>
  <text x="82" y="1110" font-family="SFMono-Regular, Menlo, Consolas, Liberation Mono, monospace" font-size="20" font-weight="750" fill="#69635d">synthetic artifact - no customer data - Marwen Ben Khemis</text>
</svg>