<?xml version="1.0" encoding="UTF-8"?>
<svg xmlns="http://www.w3.org/2000/svg" width="1200" height="1200" viewBox="0 0 1200 1200">
  
    <defs>
      <pattern id="dots" width="28" height="28" patternUnits="userSpaceOnUse">
        <circle cx="2" cy="2" r="1.1" fill="#d8ccbb" opacity="0.58"/>
      </pattern>
    </defs>
    <rect width="1200" height="1200" fill="#f4efe6"/>
    <rect width="1200" height="1200" fill="url(#dots)" opacity="0.68"/>
    <path d="M 0 983.9999999999999 C 336.00000000000006 888, 696 1104, 1200 936 L 1200 1200 L 0 1200 Z" fill="#efe7da" opacity="0.72"/>
  
  <rect x="58" y="54" width="1084" height="1092" rx="14" fill="none" stroke="#d9cec0" stroke-width="2"/>
  <text x="82" y="112" font-family="SFMono-Regular, Menlo, Consolas, Liberation Mono, monospace" font-size="23" font-weight="850" fill="#b42318">FIELD NOTE 10 / OPERATIONAL UX</text>
  <text x="82" y="210" font-family="Inter, ui-sans-serif, system-ui, -apple-system, BlinkMacSystemFont, Segoe UI, sans-serif" font-size="62" font-weight="900" fill="#171717">The admin table became an</text>
<text x="82" y="273.24" font-family="Inter, ui-sans-serif, system-ui, -apple-system, BlinkMacSystemFont, Segoe UI, sans-serif" font-size="62" font-weight="900" fill="#171717">operator workspace</text>
  <text x="84" y="365" font-family="Inter, ui-sans-serif, system-ui, -apple-system, BlinkMacSystemFont, Segoe UI, sans-serif" font-size="29" font-weight="650" fill="#69635d">The UI started routing attention instead of dumping</text>
<text x="84" y="398.06" font-family="Inter, ui-sans-serif, system-ui, -apple-system, BlinkMacSystemFont, Segoe UI, sans-serif" font-size="29" font-weight="650" fill="#69635d">rows.</text>
  
    <rect x="82" y="474" width="1036" height="590" rx="10" fill="#fffaf1" stroke="#d9cec0" stroke-width="2"/>
    <rect x="82" y="474" width="1036" height="54" rx="10" fill="#fbf3e6" stroke="#d9cec0" stroke-width="2"/>
       <text x="106" y="509" font-family="SFMono-Regular, Menlo, Consolas, Liberation Mono, monospace" font-size="20" font-weight="700" fill="#69635d">ops-console.sketch</text>
  <rect x="116" y="556" width="968" height="470" rx="8" fill="#f7f0e5" stroke="#d9cec0" stroke-width="2"/><rect x="140" y="586" width="331.52" height="410" rx="8" fill="#fffaf1" stroke="#d9cec0" stroke-width="2"/><rect x="517.12" y="586" width="486.91999999999996" height="116" rx="8" fill="#fffaf1" stroke="#0f766e" stroke-width="3"/><rect x="517.12" y="734" width="486.91999999999996" height="262" rx="8" fill="#fffaf1" stroke="#d9cec0" stroke-width="2"/><line x1="168" y1="629" x2="434.24" y2="629" stroke="#d9cec0" stroke-width="14" stroke-linecap="round"/><line x1="168" y1="681" x2="434.24" y2="681" stroke="#d9cec0" stroke-width="14" stroke-linecap="round"/><line x1="168" y1="733" x2="434.24" y2="733" stroke="#d9cec0" stroke-width="14" stroke-linecap="round"/><line x1="168" y1="785" x2="434.24" y2="785" stroke="#d9cec0" stroke-width="14" stroke-linecap="round"/><line x1="168" y1="837" x2="434.24" y2="837" stroke="#d9cec0" stroke-width="14" stroke-linecap="round"/><text x="162" y="592" font-family="SFMono-Regular, Menlo, Consolas, Liberation Mono, monospace" font-size="20" font-weight="850" fill="#69635d">work queue</text><text x="527.48" y="620" font-family="SFMono-Regular, Menlo, Consolas, Liberation Mono, monospace" font-size="20" font-weight="850" fill="#69635d">freshness</text><text x="724.32" y="680" font-family="SFMono-Regular, Menlo, Consolas, Liberation Mono, monospace" font-size="20" font-weight="850" fill="#0f766e">next action</text><text x="548.2" y="774" font-family="SFMono-Regular, Menlo, Consolas, Liberation Mono, monospace" font-size="20" font-weight="850" fill="#69635d">case facts</text>
  <text x="82" y="1110" font-family="SFMono-Regular, Menlo, Consolas, Liberation Mono, monospace" font-size="20" font-weight="750" fill="#69635d">synthetic artifact - no customer data - Marwen Ben Khemis</text>
</svg>